<svg xmlns="http://www.w3.org/2000/svg" xmlns:xlink="http://www.w3.org/1999/xlink" viewBox="0 0 1000 989.29"><defs><style>.cls-1{fill:none;}.cls-2{clip-path:url(#clip-path);}</style><clipPath id="clip-path" transform="translate(0 0)"><rect class="cls-1" width="1000" height="989.29"/></clipPath></defs><title>Asset 13</title><g id="Layer_2" data-name="Layer 2"><g id="Košík"><g id="Košík-2" data-name="Košík"><g class="cls-2"><g class="cls-2"><path d="M950,254.9H787.89c-11.21-60.41-38.4-116-79.3-160.71a292.63,292.63,0,0,0-93.36-68.77,273.88,273.88,0,0,0-230.46,0,292.63,292.63,0,0,0-93.36,68.77c-40.9,44.71-68.09,100.3-79.3,160.71H50L0,989.29H1000ZM500,60c109.08,0,200.93,83,226.56,194.9H273.44C299.07,143,390.92,60,500,60M64.22,929.29,106.05,314.9h100.3c0,1.12,0,2.25,0,3.38v76.26a61.64,61.64,0,1,0,60,0V318.28c0-1.13,0-2.26,0-3.38h467.3c0,1.12,0,2.25,0,3.38v76.26a61.64,61.64,0,1,0,60,0V318.28c0-1.13,0-2.26,0-3.38H894l41.83,614.39Z" transform="translate(0 0)"/></g></g></g></g></g></svg>