<svg xmlns="http://www.w3.org/2000/svg" viewBox="0 0 857.45 857.46"><defs><style>.cls-1{fill-rule:evenodd;}</style></defs><title>Asset 12</title><g id="Layer_2" data-name="Layer 2"><g id="Layer_7" data-name="Layer 7"><path class="cls-1" d="M715.81,420.55c-14.88,0-24.6,9.71-24.6,25.63V802.65H515.46V658.13c0-12.82-9.93-25.64-22.12-25.64h-127c-14.68,0-26.88,12.82-26.88,25.64V802.65H166V459c0-15.91-12.2-25.62-24.4-25.62-14.68,0-24.4,9.71-24.4,25.62V831.6c0,12.83,9.72,25.86,24.4,25.86H366.38c12.21,0,21.92-13,21.92-25.86V684h78.16V831.6c0,12.83,12.4,25.86,26.88,25.86H715.81c12.2,0,24.41-13,24.41-25.86V446.18c0-15.92-12.21-25.63-24.41-25.63ZM850,439.79h0C688.73,266.31,588.65,160.45,444.54,9.5,439.78,3.11,434.82,0,429.86,0a24.11,24.11,0,0,0-19.44,9.5L7.24,436.68C2.47,443.1,0,449.5,0,455.92s2.47,12.82,7.24,15.91c9.92,12.83,24.39,12.83,34.32,0L429.86,64.1l386,414.15c2.48,3.29,9.71,6.41,17.16,6.41,7.24,0,12.2-3.12,17-6.41,9.93-9.51,9.93-28.75,0-38.46Z"/></g></g></svg>