<svg xmlns="http://www.w3.org/2000/svg" viewBox="0 0 339 378.5"><title>Asset 14</title><g id="Layer_2" data-name="Layer 2"><g id="Konto"><path d="M169.5,21a75,75,0,1,1-75,75,75,75,0,0,1,75-75m0-21a96,96,0,1,0,96,96,96.11,96.11,0,0,0-96-96Z"/><path d="M266.73,188.9a145.67,145.67,0,0,1-19.63,15A100.68,100.68,0,0,1,318,300v48a9.51,9.51,0,0,1-9.5,9.5H30.5A9.51,9.51,0,0,1,21,348V300A100.68,100.68,0,0,1,91.9,204a145.67,145.67,0,0,1-19.63-15A121.51,121.51,0,0,0,0,300v48a30.51,30.51,0,0,0,30.5,30.5h278A30.51,30.51,0,0,0,339,348V300A121.51,121.51,0,0,0,266.73,188.9Z"/></g></g></svg>