<svg xmlns="http://www.w3.org/2000/svg" xmlns:xlink="http://www.w3.org/1999/xlink" viewBox="0 0 1015 1015"><defs><style>.cls-1{fill:none;}.cls-2{clip-path:url(#clip-path);}</style><clipPath id="clip-path" transform="translate(0 0)"><rect class="cls-1" width="1015" height="1015"/></clipPath></defs><title>Asset 15</title><g id="Layer_2" data-name="Layer 2"><g id="Lupa"><g id="Lupa_-_Vyhľadávanie" data-name="Lupa - Vyhľadávanie"><g class="cls-2"><g class="cls-2"><path d="M558.62,29.73a405.91,405.91,0,1,0,0,752.37,402.08,402.08,0,0,0,110.82-67.42l291.13,291.13a31.58,31.58,0,0,0,44.54,0l.7-.7a31.58,31.58,0,0,0,0-44.54L714.68,669.44a405.63,405.63,0,0,0-21.74-550.55A403.31,403.31,0,0,0,558.62,29.73M647,647c-133.14,133.14-349,133.14-482.14,0s-133.14-349,0-482.14,349-133.14,482.14,0,133.14,349,0,482.14" transform="translate(0 0)"/></g></g></g></g></g></svg>